:SAMPLES-PER-SECOND 30
:FULLY-SPECIFIED
:DEGREES
507
root  -40.068 37.0988 -28.3129 43.2004 -88.6696 -8.22999
RightUpLeg  -70.7788 -16.2024 18.729
RightLeg  38.8677 -1.87641 -1.90418
RightFoot  -4.01378 0.662845 -10.7337
RightToes  0.00048216 0.542163 -0.142577
Spine  72.1546 -4.37643 5.76871
Spine1  8.13929 1.07504 -5.60385
HEad  -34.0743 -2.08611 -2.77772
LeftShoulder1  3.62151 -25.1814 -4.66081
LeftArm  -87.2876 -65.6333 32.2037
LeftForeArm  5.9839 -8.88488 2.77872
LeftHand  -0.25398 0.0180481 5.50724
RightShoulder  1.22929 12.2436 -0.688034
RightArm  -75.0864 55.5925 -25.3795
RightForeArm  -19.1186 5.3205 0.601079
RightHand  -3.865 11.7217 -26.2035
LeftUpLeg  -73.2074 20.5913 -28.1541
LeftLeg  35.4035 0.556078 0.789485
LeftFoot  -3.73329 -0.777908 11.9796
LeftToes  1.06243e-005 4.65856e-005 -8.18505e-006
508
root  -39.7105 37.3397 -28.274 45.9665 -88.8565 -12.9102
RightUpLeg  -68.4228 -17.1501 18.7863
RightLeg  36.8248 -1.17529 -1.21598
RightFoot  -2.61865 0.820575 -10.9482
RightToes  0.00048216 0.542163 -0.142577
Spine  71.2397 -4.09959 5.54453
Spine1  7.94322 1.01789 -5.14295
HEad  -33.3366 -1.81132 -3.66517
LeftShoulder1  4.29031 -26.3532 -6.5868
LeftArm  -80.6668 -65.3841 27.0706
LeftForeArm  9.5179 -8.16719 2.12322
LeftHand  -0.25398 0.0180481 5.50724
RightShoulder  1.05511 10.8653 -1.19937
RightArm  -73.2264 60.2217 -23.0359
RightForeArm  -10.782 2.40103 0.441073
RightHand  -4.85909 13.3349 -29.9311
LeftUpLeg  -70.4988 21.0246 -27.2584
LeftLeg  33.2106 1.04381 1.09121
LeftFoot  -2.55418 -0.957365 12.6011
LeftToes  1.06243e-005 4.65856e-005 -8.18505e-006
509
root  -39.3602 37.5922 -28.2386 52.002 -89.014 -21.1965
RightUpLeg  -65.5793 -18.1373 18.6386
RightLeg  34.6474 -0.484672 -0.621154
RightFoot  -1.26407 0.967244 -11.0213
RightToes  0.00048216 0.542163 -0.142577
Spine  70.1529 -3.58083 5.30699
Spine1  7.52671 1.05848 -4.32881
HEad  -31.8906 -1.54737 -4.92769
LeftShoulder1  5.45357 -27.6271 -10.0584
LeftArm  -70.4424 -63.8361 17.1337
LeftForeArm  11.1543 -9.58583 1.21927
LeftHand  -0.25398 0.0180481 5.50724
RightShoulder  1.06021 9.97932 -0.609891
RightArm  -66.4119 64.3416 -16.663
RightForeArm  -3.41459 -0.177976 1.10285
RightHand  -5.45112 14.4417 -31.5839
LeftUpLeg  -67.2845 21.454 -25.9174
LeftLeg  30.9091 1.89631 1.57682
LeftFoot  -1.28387 -1.10922 12.6531
LeftToes  1.06243e-005 4.65856e-005 -8.18505e-006
510
root  -39.0237 37.8479 -28.1974 58.4901 -89.0606 -30.2694
RightUpLeg  -62.3725 -19.3817 18.4163
RightLeg  32.4941 0.262707 -0.0712263
RightFoot  0.0244196 1.11304 -11.1347
RightToes  0.00048216 0.542163 -0.142577
Spine  68.7692 -2.93385 5.17753
Spine1  7.32131 1.23024 -3.2663
HEad  -29.7703 -1.30914 -6.42625
LeftShoulder1  6.87675 -28.3777 -14.4891
LeftArm  -58.447 -60.6077 5.6631
LeftForeArm  13.9793 -11.872 -0.137517
LeftHand  -0.25398 0.0180481 5.50724
RightShoulder  1.30716 10.2352 1.25651
RightArm  -52.3721 65.8642 -5.33921
RightForeArm  -0.802551 -1.57456 3.09546
RightHand  -5.49774 14.4473 -31.8164
LeftUpLeg  -63.7285 21.8867 -24.1158
LeftLeg  28.9023 2.47985 1.83011
LeftFoot  -0.0653787 -1.15216 11.635
LeftToes  1.06243e-005 4.65856e-005 -8.18505e-006
511
root  -38.7118 38.0946 -28.1448 60.3968 -89.0213 -34.9348
RightUpLeg  -58.9938 -20.8364 18.067
RightLeg  30.4883 1.00517 0.396121
RightFoot  1.25536 1.26227 -11.3094
RightToes  0.00048216 0.542163 -0.142577
Spine  67.0136 -2.37714 5.19242
Spine1  7.51448 1.37686 -2.20102
HEad  -27.4329 -0.680547 -8.17696
LeftShoulder1  8.36339 -28.1634 -19.7106
LeftArm  -46.5197 -56.2444 -3.55353
LeftForeArm  17.6831 -12.8371 -1.71867
LeftHand  -0.25398 0.0180481 5.50724
RightShoulder  1.71879 11.0441 3.87252
RightArm  -35.8741 64.0496 8.86049
RightForeArm  -0.441034 -1.19373 5.2241
RightHand  -5.17816 13.6244 -31.2967
LeftUpLeg  -60.1844 22.3539 -22.3511
LeftLeg  27.381 2.43985 1.71497
LeftFoot  1.3319 -1.26801 11.2724
LeftToes  1.06243e-005 4.65856e-005 -8.18505e-006
512
root  -38.4283 38.3456 -28.0937 50.5341 -88.9137 -27.8219
RightUpLeg  -55.5054 -22.313 17.3892
RightLeg  28.4766 1.5832 0.694108
RightFoot  2.42289 1.39727 -11.3908
RightToes  0.00048216 0.542163 -0.142577
Spine  65.0475 -1.94084 5.33676
Spine1  7.8102 1.40427 -1.08793
HEad  -25.2016 0.584371 -10.313
LeftShoulder1  9.88933 -27.2332 -25.7964
LeftArm  -35.9037 -50.9039 -9.62403
LeftForeArm  18.5238 -12.3418 -3.23852
LeftHand  -0.25398 0.0180481 5.50724
RightShoulder  2.25828 11.7715 7.20537
RightArm  -23.4312 59.1006 20.8133
RightForeArm  0.644749 0.546315 6.49587
RightHand  -4.70882 12.5347 -30.2541
LeftUpLeg  -57.0227 23.1293 -21.244
LeftLeg  26.2059 1.90497 1.36049
LeftFoot  3.71223 -1.56895 11.6671
LeftToes  1.06243e-005 4.65856e-005 -8.18505e-006
513
root  -38.1652 38.6229 -28.0504 25.3666 -88.6144 -5.26196
RightUpLeg  -52.0044 -23.9176 16.3005
RightLeg  26.225 2.07225 0.878697
RightFoot  3.55876 1.49766 -11.2213
RightToes  0.00048216 0.542163 -0.142577
Spine  62.4984 -1.55778 5.52549
Spine1  9.05113 1.30198 0.00779409
HEad  -23.6136 2.19464 -12.6255
LeftShoulder1  10.8904 -26.0565 -30.5723
LeftArm  -28.4497 -44.465 -14.4582
LeftForeArm  15.5658 -12.1458 -4.28055
LeftHand  -0.25398 0.0180481 5.50724
RightShoulder  2.84299 12.111 11.0642
RightArm  -15.909 52.2746 27.9592
RightForeArm  0.825972 2.98647 7.37485
RightHand  -4.1554 11.3161 -28.7298
LeftUpLeg  -54.1764 24.1158 -20.5098
LeftLeg  25.358 0.929741 0.818819
LeftFoot  6.56772 -1.41677 8.81549
LeftToes  1.06243e-005 4.65856e-005 -8.18505e-006
514
root  -37.913 38.8982 -27.9808 -1.86142 -87.9374 19.6004
RightUpLeg  -48.8618 -25.9545 14.9695
RightLeg  23.9762 2.88132 1.15263
RightFoot  4.70682 1.56182 -10.8089
RightToes  0.00048216 0.542163 -0.142577
Spine  58.6799 -1.27003 5.40282
Spine1  12.8705 0.839651 0.901538
HEad  -23.4378 4.18219 -14.9722
LeftShoulder1  10.3978 -24.3555 -31.1798
LeftArm  -24.8322 -37.7205 -19.8423
LeftForeArm  11.9868 -13.3479 -4.23695
LeftHand  -0.25398 0.0180481 5.50724
RightShoulder  3.15253 11.9483 13.4539
RightArm  -11.4116 45.6565 32.0946
RightForeArm  -2.1038 5.45844 8.25387
RightHand  -3.56734 9.77786 -27.249
LeftUpLeg  -51.1476 24.157 -18.8279
LeftLeg  25.4645 -0.681679 -0.0217146
LeftFoot  7.33314 -0.0897269 0.124644
LeftToes  1.06243e-005 4.65856e-005 -8.18505e-006
515
root  -37.6678 39.1003 -27.8326 -18.1341 -87.1102 33.7221
RightUpLeg  -46.1697 -27.9834 13.28
RightLeg  22.333 3.79864 1.66167
RightFoot  5.76413 1.60075 -10.3431
RightToes  0.00048216 0.542163 -0.142577
Spine  57.2284 -1.07575 4.65212
Spine1  11.9155 -0.0173579 1.85427
HEad  -20.9424 7.9344 -17.5759
LeftShoulder1  10.5071 -21.6543 -35.5714
LeftArm  -19.0729 -28.8405 -21.4568
LeftForeArm  10.2351 -15.929 -4.68041
LeftHand  -0.25398 0.0180481 5.50724
RightShoulder  3.87526 12.9241 16.9159
RightArm  -3.87492 36.7031 34.2516
RightForeArm  -7.0824 8.42917 9.77079
RightHand  -3.08679 8.1487 -26.4415
LeftUpLeg  -47.7984 22.1027 -15.3323
LeftLeg  27.4857 -2.92699 -1.33315
LeftFoot  4.30539 1.33262 -9.98461
LeftToes  1.06243e-005 4.65856e-005 -8.18505e-006
516
root  -37.4158 39.2214 -27.5921 -26.5891 -86.5254 40.0388
RightUpLeg  -43.0455 -28.4662 10.2093
RightLeg  21.2128 3.15588 2.35582
RightFoot  6.674 1.62584 -9.93319
RightToes  0.00048216 0.542163 -0.142577
Spine  55.4387 -1.70329 5.02691
Spine1  11.1764 -0.0941945 -0.0312505
HEad  -18.2124 11.6128 -18.6538
LeftShoulder1  10.2346 -20.1803 -37.0333
LeftArm  -14.4895 -19.2851 -22.4856
LeftForeArm  11.3987 -18.2742 -4.52013
LeftHand  -0.25398 0.0180481 5.50724
RightShoulder  4.9414 13.4396 22.9521
RightArm  6.33673 27.5735 33.119
RightForeArm  -12.8273 12.1353 10.2942
RightHand  -2.76203 6.99426 -25.8721
LeftUpLeg  -44.5896 18.5508 -10.9183
LeftLeg  31.6133 -4.4709 -2.61285
LeftFoot  -0.65183 1.37169 -14.3035
LeftToes  1.06243e-005 4.65856e-005 -8.18505e-006
